<svg width="55" height="64" viewBox="0 0 55 64" fill="none" xmlns="http://www.w3.org/2000/svg">
<path fill-rule="evenodd" clip-rule="evenodd" d="M2.03787 2.25352C9.50942 11.3219 21.0286 25.4409 21.6005 26.2312C22.0726 26.8839 21.8949 27.4707 21.0859 27.9306C20.6361 28.1862 19.7113 28.4454 19.2483 28.4454C18.7246 28.4454 18.1346 28.1932 17.7049 27.7856C17.4012 27.4977 16.1756 25.6673 13.346 21.277C11.1812 17.9178 9.36937 15.131 9.31987 15.0844C9.2056 14.9765 9.20753 14.98 13.1254 21.99C15.5854 26.3917 16.4158 27.9479 16.4158 28.156C16.4158 28.5793 16.3004 28.8019 15.7781 29.3843C14.9077 30.3554 14.5185 31.4466 14.2376 33.705C13.9227 36.2365 13.0372 38.0247 10.583 41.0853C9.14662 42.8769 8.91156 43.2053 8.54905 43.9273C8.09242 44.8367 7.96689 45.346 7.91606 46.4943C7.86226 47.7084 7.96704 48.4925 8.33785 49.6533C8.66257 50.6695 9.00152 51.3406 9.86808 52.6826C10.6159 53.8408 11.0465 54.7016 11.0465 55.0383C11.0465 55.3062 11.0976 55.3064 12.2564 55.0449C15.0295 54.4187 17.2812 53.3172 18.5476 51.9677C19.3313 51.1322 19.5154 50.6709 19.5213 49.5261C19.5252 48.7772 19.499 48.6204 19.2965 48.1897C18.967 47.4886 18.3671 46.9057 17.0451 46.0018C15.3129 44.8176 14.5729 43.8643 14.3685 42.5532C14.2009 41.4775 14.3955 40.7185 15.3538 38.71C16.3456 36.631 16.5915 35.7452 16.7577 33.6497C16.865 32.2958 17.0138 31.7618 17.4027 31.3332C17.8085 30.8864 18.1737 30.7351 19.1776 30.5978C20.8144 30.3743 21.8568 29.9508 22.7134 29.1613C23.4567 28.4766 23.7676 27.8166 23.8153 26.8232L23.8516 26.0703L23.4362 25.5861C21.9322 23.8324 1.03063 0.875 0.938072 0.875C0.918302 0.875 1.41322 1.49538 2.03787 2.25352ZM11.8908 47.868C12.2308 47.2657 12.0501 46.4914 11.4813 46.1132C10.9439 45.7559 10.1089 45.9243 10.1089 46.3899C10.1089 46.5321 10.1876 46.6355 10.3647 46.7267C10.6629 46.88 10.6845 47.0527 10.4499 47.4053C10.2122 47.7625 10.2315 48.0765 10.504 48.2898C10.9433 48.6338 11.565 48.4447 11.8908 47.868ZM22.1259 15.0273C21.455 14.9231 21.4267 14.9109 21.7425 14.8623C22.3476 14.7693 23.7765 14.8961 24.761 15.1303C27.0597 15.6767 29.1515 17.0764 31.3842 19.5624L31.9773 20.2228L32.8258 20.0863C36.4007 19.5119 40.0373 19.9685 43.079 21.3736C43.9158 21.7601 45.2352 22.5296 45.4 22.7273C45.4525 22.7905 45.549 23.1961 45.6142 23.629C45.8402 25.1266 45.7271 26.2745 45.269 27.132C45.0197 27.5986 45.0058 27.7463 45.1734 28.1457C45.3073 28.4644 45.6801 28.7002 46.0495 28.6996C46.8053 28.6987 47.619 27.4767 47.996 25.7765L48.1457 25.1011L48.4424 25.4371C50.0694 27.2807 51.3474 29.7947 51.567 31.5843L51.6243 32.0508L51.3507 31.6267C50.88 30.8967 50.407 30.4 49.8015 29.9992C48.7098 29.2769 47.5554 29.031 44.4984 28.8699C41.7374 28.7245 40.1747 28.4885 38.6252 27.9833C35.989 27.1239 34.66 25.9791 31.5285 21.8706C30.1376 20.0455 29.2779 19.036 28.4227 18.2229C26.4795 16.3752 24.5701 15.4064 22.1259 15.0273ZM46.0228 19.1018C46.0921 17.879 46.258 17.0725 46.5914 16.3359C46.7233 16.0442 46.8471 15.8056 46.8661 15.8056C46.8852 15.8056 46.8278 16.0208 46.7386 16.2838C46.4963 16.9986 46.4564 17.9765 46.6234 19.114C46.8354 20.5575 46.9559 20.7657 48.4815 22.3249C49.197 23.0563 50.0294 23.9787 50.3311 24.3747L50.8796 25.0947L50.3311 24.5801C49.6602 23.9508 48.1172 22.7235 47.7763 22.5481C47.5478 22.4305 47.5139 22.4325 47.3729 22.5728C47.2429 22.7021 47.2157 22.8964 47.1976 23.8148C47.1696 25.2462 46.9744 26.1649 46.5035 27.0835C46.2489 27.5804 46.2088 27.4743 46.4392 26.9135C46.6113 26.4948 46.6288 26.3107 46.6274 24.925C46.6248 22.141 46.2943 21.4717 44.3559 20.325C43.8649 20.0345 43.0558 19.6157 42.558 19.3941C42.0602 19.1725 41.6648 18.9796 41.6791 18.965C41.734 18.9105 43.6243 19.4623 44.3852 19.7548C45.5169 20.1903 45.7038 20.2466 45.8412 20.1941C45.9334 20.159 45.978 19.8906 46.0228 19.1018ZM21.4069 16.9641C21.2244 19.1136 22.0673 21.989 23.4294 23.8643C24.4854 25.3181 26.1223 26.4478 27.3308 26.5569C28.1219 26.6283 28.3598 26.3807 28.0019 25.858C27.5048 25.1321 26.8936 24.0146 26.7319 23.536C26.6314 23.2389 26.413 22.3608 26.2465 21.5849C25.6783 18.936 25.1199 17.9045 23.8297 17.1209C23.3596 16.8355 22.3557 16.4617 21.7734 16.3556L21.4633 16.299L21.4069 16.9641ZM44.3708 37.8221C38.005 35.2589 35.7629 33.0342 35.7629 29.2803C35.7629 28.7278 35.7819 28.2759 35.8051 28.2759C35.8282 28.2759 36.0746 28.4582 36.3525 28.6809C37.6433 29.7165 39.0888 30.1586 43.0906 30.7425C45.4455 31.086 46.7707 31.3635 47.9932 31.769C51.8785 33.0575 54.2826 35.6726 54.8558 39.2344C55.0224 40.2693 54.9248 42.2102 54.6546 43.233C54.4413 44.041 53.7907 45.4973 53.6182 45.5532C53.5703 45.5687 53.5233 45.3853 53.5112 45.1358C53.4457 43.7983 52.7698 42.4963 51.6347 41.5208C50.3441 40.4119 48.6103 39.529 44.3708 37.8221ZM39.5943 37.5398C39.6835 37.806 39.8217 38.4122 39.9016 38.8867C40.4113 41.9214 38.8185 44.373 35.72 45.323C35.3919 45.4236 34.0998 45.6765 32.8485 45.8848C30.3157 46.3066 29.1851 46.6051 28.0496 47.1523C27.2441 47.5402 26.269 48.1214 26.327 48.1791C26.3457 48.1978 26.5294 48.1539 26.7354 48.0814C28.1676 47.5785 29.7614 47.3184 32.1831 47.1925C33.144 47.1425 34.237 47.0629 34.6122 47.0158C36.7696 46.744 38.2645 46.0886 39.4275 44.9052C40.0746 44.2467 40.4602 43.6332 40.771 42.7679C40.968 42.2193 40.9947 42.0155 40.9963 41.043C40.9979 40.0523 40.9739 39.8711 40.7605 39.2614C40.481 38.4627 40.1509 37.8631 39.7334 37.3944L39.4317 37.0558L39.5943 37.5398ZM42.8198 44.0692C41.974 42.251 41.7799 40.4955 42.2431 38.8584C42.2928 38.6834 42.3724 38.5402 42.4204 38.5402C42.4683 38.5402 42.6679 38.6481 42.8638 38.78C43.2536 39.0423 44.0354 39.4843 46.1179 40.6197C48.7166 42.0365 50.1984 43.1337 51.2059 44.3872C52.0883 45.485 52.6345 46.7351 52.8972 48.2597C53.046 49.1233 52.9589 51.2013 52.7373 52.071C52.0385 54.8128 50.4146 56.9667 48.0985 58.2234C47.7591 58.4075 47.4545 58.5587 47.4215 58.5593C47.3886 58.56 47.5122 58.2457 47.6962 57.8606C48.4755 56.2319 48.5641 54.6475 47.9752 52.884C47.6144 51.8043 46.879 50.4868 45.3942 48.2601C43.6677 45.6711 43.2446 44.9821 42.8198 44.0692ZM26.8879 50.0331C24.2105 50.4679 21.2711 51.8851 18.9087 53.8796L18.2055 54.4735L18.8235 54.57C22.0489 55.0736 22.9176 55.5201 25.1549 57.8247C26.4425 59.151 26.8773 59.4461 27.9452 59.7188C29.5138 60.1192 31.0599 59.3834 31.5901 57.984C31.8271 57.3589 31.7955 56.3235 31.5237 55.8038C30.877 54.5661 28.9931 54.1659 28.0821 55.0727C27.3233 55.8279 27.5444 56.9657 28.4882 57.1613C28.7043 57.2062 28.698 57.1968 28.433 57.0769C28.0201 56.89 27.8407 56.6312 27.8384 56.2192C27.8331 55.253 28.9387 54.7105 29.9671 55.1746C30.7203 55.5145 31.0194 55.9586 31.0194 56.7369C31.0194 57.9356 29.9991 58.8387 28.8119 58.6911C28.1774 58.6121 27.4012 58.2062 26.9851 57.7356C25.938 56.5516 26.3459 54.6833 27.8079 53.9665C28.9208 53.4208 30.4003 53.5553 31.5475 54.3066C32.8657 55.1699 33.4264 55.9586 34.5617 58.5483C34.9314 59.3913 35.407 60.3404 35.6187 60.6572C36.6939 62.2672 37.9826 63.0568 39.5347 63.0568C40.3906 63.0568 41.0349 62.9005 41.845 62.4957C42.447 62.195 43.3003 61.6238 43.239 61.5628C43.2213 61.5453 42.9716 61.6228 42.684 61.735C40.9892 62.3961 39.2665 62.3505 38.2659 61.6183C37.6361 61.1571 37.1277 60.239 36.8666 59.0902C36.8214 58.8915 36.6721 58.0134 36.5349 57.1391C36.187 54.9225 35.853 53.9264 35.0743 52.7832C34.2774 51.6135 32.7453 50.6318 31.0326 50.1934C29.964 49.92 28.0418 49.8456 26.8879 50.0331ZM23.138 32.8973C23.3692 32.0435 24.1162 31.2291 24.8845 30.993C25.3731 30.843 26.3831 30.9389 26.858 31.1802C27.7783 31.648 28.4464 32.7139 28.3013 33.483C28.1245 34.4213 26.6034 35.1718 24.8535 35.1839C23.9597 35.1903 23.6296 35.0701 23.2883 34.6144C23.0769 34.3321 22.9969 33.4184 23.138 32.8973ZM26.6231 31.5145C27.0819 31.7948 27.2 32.2092 26.9301 32.5926C26.7443 32.8568 26.1688 33.1076 25.7484 33.1076C25.1166 33.1076 24.4272 32.6591 24.4272 32.2481C24.4272 31.4225 25.7489 30.9808 26.6231 31.5145Z" fill="#FF007A"/>
</svg>
